<?xml version="1.0" encoding="UTF-8" standalone="no"?>
<svg
   xmlns:dc="http://purl.org/dc/elements/1.1/"
   xmlns:cc="http://creativecommons.org/ns#"
   xmlns:rdf="http://www.w3.org/1999/02/22-rdf-syntax-ns#"
   xmlns:svg="http://www.w3.org/2000/svg"
   xmlns="http://www.w3.org/2000/svg"
   xmlns:sodipodi="http://sodipodi.sourceforge.net/DTD/sodipodi-0.dtd"
   xmlns:inkscape="http://www.inkscape.org/namespaces/inkscape"
   version="1.1"
   viewBox="0 0 611.27 133"
   id="svg6"
   sodipodi:docname="prue2.svg"
   inkscape:version="1.0.2 (1.0.2+r75+1)">
  <metadata
     id="metadata12">
    <rdf:RDF>
      <cc:Work
         rdf:about="">
        <dc:format>image/svg+xml</dc:format>
        <dc:type
           rdf:resource="http://purl.org/dc/dcmitype/StillImage" />
      </cc:Work>
    </rdf:RDF>
  </metadata>
  <defs
     id="defs10" />
  <sodipodi:namedview
     pagecolor="#ffffff"
     bordercolor="#666666"
     borderopacity="1"
     objecttolerance="10"
     gridtolerance="10"
     guidetolerance="10"
     inkscape:pageopacity="0"
     inkscape:pageshadow="2"
     inkscape:window-width="1600"
     inkscape:window-height="863"
     id="namedview8"
     showgrid="false"
     inkscape:zoom="1.8240711"
     inkscape:cx="314.56323"
     inkscape:cy="66.5"
     inkscape:window-x="0"
     inkscape:window-y="0"
     inkscape:window-maximized="1"
     inkscape:current-layer="svg6" />
  <g
     transform="translate(-104.45 -235.84)"
     id="g4"
     style="fill:#214478">
    <path
       d="m646.29 366.09c-0.30168-5.3342 0.3164-7.776 2.5945-10.25 5.7148-6.2061 6.6691-10 2.5154-10-1.2444 0-2.4278 1.1971-3.339 3.3779-1.3106 3.1366-3.2838 5.2915-4.0953 4.4722-0.19074-0.19258 0.0183-3.669 0.46448-7.7254 0.97014-8.8195 3.3712-11.96 9.8024-12.823 5.6966-0.76407 8.6481 0.19316 13.158 4.2672 6.6348 5.9941 6.4172 13.71-0.56703 20.107-3.7516 3.4363-5.6094 2.494-3.362-1.7052 0.86341-1.6133 0.87636-2.4788 0.0495-3.3057-1.9571-1.9571-4.52 0.66436-5.0651 5.1807-0.44586 3.6941-1.078 4.5223-5.8373 7.6484-2.9355 1.9282-5.523 3.5057-5.75 3.5057-0.227 0-0.48271-1.2375-0.56824-2.75zm37.406-11.05c-3.6346-1.7482-3.6876-2.0618-1.9036-11.271 0.70009-3.6141 1.096-7.1016 0.87991-7.75-0.53619-1.6086-2.728-1.4843-4.1554 0.23566-0.98676 1.189-3.1595 0.43697-13.622-4.7149-11.484-5.6548-12.448-6.3452-12.448-8.9146 0-1.809-0.52572-2.7851-1.5-2.7851-0.825 0-1.5036 0.3375-1.5081 0.75-4e-3 0.4125-2.4224 3.3786-5.3732 6.5912l-5.3652 5.8412-3.1268-1.6169c-1.7197-0.8893-3.1268-2.2442-3.1268-3.0109 0-1.4114 7.9098-22.098 9.2497-24.19 0.39996-0.6247 3.6578-1.9291 7.2397-2.8987 3.5819-0.96957 6.9184-2.2584 7.4146-2.8642 0.49613-0.60572 1.8969-4.4763 3.1128-8.6013 3.8302-12.994 11.127-26.676 18.538-34.761 4.1122-4.4859 7.4177-7.2389 8.6917-7.2389 2.8411 0 28.728 12.832 28.86 14.306 1.2352 13.823-4.8265 32.534-15.612 48.192l-4.8204 6.9977 2.2713 6.0023c3.6766 9.7161 3.704 9.4833-2.3503 19.97-3.0774 5.3301-5.5952 10.05-5.5952 10.489 0 2.1688-2.6396 2.7397-5.75 1.2436zm13.878-72.816c4.5834-4.1479 2.7656-11.278-3.5479-13.916-7.7884-3.2542-14.78 3.3756-11.088 10.514 2.9388 5.683 10.24 7.3797 14.636 3.4012zm-591.88 65.472c-0.6875-0.69102-1.25-1.9006-1.25-2.6881 0-1.8045 23.697-90.665 25.201-94.502 0.61115-1.5588 2.1952-3.2463 3.5201-3.75 4.0669-1.5462 48.775-1.1531 52.643 0.46295 8.3864 3.504 9.3696 9.4668 4.5408 27.538-3.2017 11.982-5.0615 16.002-9.2031 19.893-2.3835 2.2392-2.397 2.3484-0.82796 6.7116 1.5187 4.2234 1.4811 4.8785-0.78706 13.707-4.7273 18.4-5.8888 21.338-10.099 25.549-7.5072 7.5072-8.3248 7.6847-36.987 8.0291-19.475 0.234-25.795 0.01-26.75-0.95zm43.713-10.606c2.4724-2.2703 3.609-5.016 6.5158-15.74 4.0486-14.937 4.08-15.235 1.866-17.681-1.3784-1.5231-3.2167-1.8287-11-1.8287-5.1398 0-9.345 0.18067-9.345 0.40148 0 0.51684-8.6159 32.813-9.4806 35.537-0.62953 1.9835-0.29376 2.0613 8.8974 2.0613 9.0273 0 9.716-0.15097 12.546-2.75zm12.591-46.543c2.1446-1.8447 3.3982-5.014 6.4091-16.203 2.0587-7.6502 3.5278-14.732 3.2648-15.738-0.79165-3.0273-3.8057-3.8578-12.899-3.5544l-8.657 0.28883-4.8249 18c-2.6537 9.9-4.83 18.338-4.8362 18.75-6e-3 0.4125 4.2386 0.75 9.4329 0.75 8.4051 0 9.7376-0.25233 12.11-2.2932zm32.445 57.587c-2.9823-1.0902-5.9821-4.6812-6.582-7.8793-0.45162-2.4073 2.4624-14.785 11.086-47.09 6.4345-24.103 12.119-44.612 12.633-45.574 0.79269-1.4861 2.4275-1.75 10.839-1.75 5.4482 0 10.118 0.34369 10.378 0.76375s-4.6757 19.883-10.967 43.25c-11.167 41.473-12.463 47.239-10.96 48.75 0.40252 0.40475 6.8837 0.96091 14.403 1.2359l13.671 0.5-0.35228 2.5c-0.86536 6.1412-0.35808 6.0073-22.433 5.921-11.118-0.0434-20.89-0.32569-21.715-0.62728zm63.388-0.24784c-3.0755-1.2805-6.3883-5.9125-6.3872-8.9308 5e-4 -1.4383 4.7402-20.39 10.533-42.115 14.46-54.232 10.767-50.5 49.966-50.5h27l-0.32518 2.9881c-0.58982 5.42-0.9334 5.5119-20.609 5.5119-16.787 0-18.354 0.15366-20.329 1.9935-1.1769 1.0964-2.5344 3.4589-3.0167 5.25-15.3 56.816-19.532 74.04-18.568 75.574 0.80668 1.2836 2.8322 1.751 8.5431 1.9717 10.796 0.41707 11.072 0.0911 16.406-19.339 2.4082-8.7727 4.383-16.513 4.3884-17.2 7e-3 -0.88189-2.0516-1.25-6.9902-1.25h-7v-2.8089c0-6.0686 0.68227-6.2671 20.504-5.9652 17.741 0.2702 18 0.3055 18.312 2.4975 0.17383 1.2229-2.0495 11.061-4.9406 21.863-8.326 31.107-7.9385 30.819-41.875 31.126-12.925 0.11694-24.45-0.18307-25.612-0.66668zm73.353 0.3621c-0.83921-0.83921 0.12653-5.3902 1.519-7.158 0.72815-0.92447 6.1208-1.25 20.707-1.25 17.654 0 19.892-0.18702 21.337-1.7835 1.8039-1.9933 10.004-31.37 9.4972-34.022-0.28591-1.4947-2.4284-1.7538-18.152-2.1948l-17.827-0.5-2.4111-2.8058c-3.2646-3.799-3.0919-6.3466 1.6301-24.046 4.9319-18.486 5.4164-19.754 8.7815-22.977 5.5403-5.3067 7.8918-5.6705 36.645-5.6705 25.568 0 26.532 0.0703 26.532 1.9349 0 1.0642-0.43886 3.0892-0.97525 4.5l-0.97525 2.5651h-20.502c-20.169 0-20.525 0.0365-21.938 2.25-0.79003 1.2375-3.283 9.1697-5.54 17.627-3.1422 11.774-3.8366 15.699-2.9642 16.75 0.87863 1.0587 4.7845 1.3729 17.067 1.3729 25.553 0 26.08 0.73742 19.237 26.911-2.5293 9.6741-5.3342 18.837-6.233 20.362-0.89889 1.525-3.4042 4-5.5673 5.5l-3.9329 2.7273-27.615 0.30649c-15.188 0.16856-27.932-0.0107-28.32-0.39846zm85.647-0.3881c-3.139-1.2683-6.3881-5.9036-6.3881-9.1133 0-1.553 2.9321-13.722 6.5158-27.042 6.9624-25.878 8.2622-28.699 15.213-33.02 3.6414-2.264 4.4893-2.3448 24.603-2.3448h20.832l2.918 3.2658c1.8127 2.0287 2.918 4.3723 2.918 6.1868 0 2.7287-9.2402 38.822-12.605 49.235-1.8118 5.6077-7.5602 11.209-13.075 12.74-4.5124 1.253-37.874 1.328-40.933 0.0921zm30.349-10.413c1.0508-1.3359 4.663-12.831 8.1768-26.022 7.1745-26.932 7.1937-26.585-1.4639-26.585-4.395 0-5.6258 0.4079-7.1756 2.3781-1.0444 1.3277-4.6375 12.844-8.135 26.072-4.9454 18.705-6.0149 23.995-5.0796 25.122 0.75408 0.9086 3.1137 1.4277 6.4898 1.4277 4.4043 0 5.6246-0.40627 7.1873-2.393zm45.7 10.09c-0.27501-0.71666 2.8588-13.879 6.9639-29.25 4.1052-15.371 7.7681-29.184 8.1398-30.697l0.67587-2.75h-6.0494c-3.3272 0-6.3153-0.43019-6.6402-0.95598-0.32495-0.52579 0.0755-2.5508 0.88996-4.5 1.4769-3.5348 1.4974-3.544 7.8749-3.544h6.3941l2.2607-8.25c2.8112-10.259 4.0377-12.651 8.4888-16.559 5.0885-4.4677 9.463-5.2794 26.769-4.9668l15.296 0.27629-0.32518 2.9881c-0.54571 5.0147-1.6049 5.5119-11.742 5.5119-11.816 0-13.392 1.1614-16.368 12.064-1.1358 4.1601-2.065 7.8578-2.065 8.2172 0 0.35941 5.0625 0.78071 11.25 0.93622l11.25 0.28275-0.32518 2.9881c-0.55979 5.144-1.4687 5.5119-13.62 5.5119h-11.201l-8.2874 31.25c-4.5581 17.188-8.8002 31.581-9.4268 31.985-2.1113 1.3613-19.653 0.89445-20.202-0.5377zm75.157-0.22443c-4.1404-2.1592-5.528-4.4014-5.5528-8.9726-0.0119-2.2 2.8965-14.8 6.4631-28s6.4871-24.338 6.4899-24.75c3e-3 -0.4125-2.6684-0.75-5.9359-0.75s-6.2069-0.43019-6.5318-0.95598c-0.32495-0.52579 0.0755-2.5508 0.88996-4.5 1.4769-3.5348 1.4974-3.544 7.8752-3.544h6.3944l3.256-12.25c1.7908-6.7375 3.7738-12.581 4.4066-12.985 1.7423-1.1125 19.443-0.9097 20.148 0.23087 0.33862 0.5479-0.75982 6.1503-2.441 12.45-1.6812 6.2995-3.0567 11.686-3.0567 11.971 0 0.28462 5.0625 0.64473 11.25 0.80024l11.25 0.28275-0.32518 2.9881c-0.55989 5.1449-1.4677 5.5119-13.635 5.5119h-11.215l-6.8289 25.624c-5.0714 19.03-6.5657 26.043-5.8062 27.25 0.81406 1.2939 3.1069 1.6839 11.238 1.9114l10.215 0.28578-0.68707 3.2142c-1.2125 5.6723-1.3526 5.7148-18.829 5.7081-12.453-5e-3 -16.79-0.3514-19.033-1.5213zm134.58-96.819-12.326-6.1426 8.7583-4.2553c4.817-2.3404 9.3161-4.2553 9.998-4.2553 0.68186 0 1.7135 1.4625 2.2925 3.25 1.4593 4.5049 4.2656 16.924 3.9014 17.266-0.16451 0.15422-5.8456-2.4838-12.625-5.8622z"
       id="path2"
       style="fill:#214478" />
  </g>
</svg>
